<svg width="1280" height="640" viewBox="0 0 1280 640" fill="none" xmlns="http://www.w3.org/2000/svg">
<rect x="112" y="256" width="89" height="128" rx="8" fill="url(#paint0_linear_3_2)"/>
<rect x="123.125" y="276.87" width="66.75" height="11.1304" rx="2" fill="#EBEBEB"/>
<rect x="123.125" y="290.783" width="66.75" height="11.1304" rx="2" fill="#EBEBEB"/>
<rect x="123.125" y="304.696" width="66.75" height="11.1304" rx="2" fill="#EBEBEB"/>
<ellipse cx="156.5" cy="346.435" rx="11.125" ry="11.1304" fill="#EBEBEB"/>
<path d="M257.784 349L237.807 279.182H253.932L265.489 327.693H266.068L278.818 279.182H292.625L305.341 327.795H305.955L317.511 279.182H333.636L313.659 349H299.273L285.977 303.352H285.432L272.17 349H257.784ZM341.264 349V296.636H355.787V349H341.264ZM348.56 289.886C346.401 289.886 344.548 289.17 343.003 287.739C341.48 286.284 340.719 284.545 340.719 282.523C340.719 280.523 341.48 278.807 343.003 277.375C344.548 275.92 346.401 275.193 348.56 275.193C350.719 275.193 352.56 275.92 354.082 277.375C355.628 278.807 356.401 280.523 356.401 282.523C356.401 284.545 355.628 286.284 354.082 287.739C352.56 289.17 350.719 289.886 348.56 289.886ZM381.943 318.727V349H367.42V296.636H381.261V305.875H381.875C383.034 302.83 384.977 300.42 387.705 298.648C390.432 296.852 393.739 295.955 397.625 295.955C401.261 295.955 404.432 296.75 407.136 298.341C409.841 299.932 411.943 302.205 413.443 305.159C414.943 308.091 415.693 311.591 415.693 315.659V349H401.17V318.25C401.193 315.045 400.375 312.545 398.716 310.75C397.057 308.932 394.773 308.023 391.864 308.023C389.909 308.023 388.182 308.443 386.682 309.284C385.205 310.125 384.045 311.352 383.205 312.966C382.386 314.557 381.966 316.477 381.943 318.727ZM465.287 299.261C465.014 296.511 463.844 294.375 461.776 292.852C459.707 291.33 456.901 290.568 453.355 290.568C450.946 290.568 448.912 290.909 447.253 291.591C445.594 292.25 444.321 293.17 443.435 294.352C442.571 295.534 442.139 296.875 442.139 298.375C442.094 299.625 442.355 300.716 442.923 301.648C443.514 302.58 444.321 303.386 445.344 304.068C446.366 304.727 447.548 305.307 448.889 305.807C450.23 306.284 451.662 306.693 453.185 307.034L459.457 308.534C462.503 309.216 465.298 310.125 467.844 311.261C470.389 312.398 472.594 313.795 474.457 315.455C476.321 317.114 477.764 319.068 478.787 321.318C479.832 323.568 480.366 326.148 480.389 329.057C480.366 333.33 479.276 337.034 477.116 340.17C474.98 343.284 471.889 345.705 467.844 347.432C463.821 349.136 458.969 349.989 453.287 349.989C447.651 349.989 442.741 349.125 438.56 347.398C434.401 345.67 431.151 343.114 428.81 339.727C426.491 336.318 425.276 332.102 425.162 327.08H439.446C439.605 329.42 440.276 331.375 441.457 332.943C442.662 334.489 444.264 335.659 446.264 336.455C448.287 337.227 450.571 337.614 453.116 337.614C455.616 337.614 457.787 337.25 459.628 336.523C461.491 335.795 462.935 334.784 463.957 333.489C464.98 332.193 465.491 330.705 465.491 329.023C465.491 327.455 465.026 326.136 464.094 325.068C463.185 324 461.844 323.091 460.071 322.341C458.321 321.591 456.173 320.909 453.628 320.295L446.026 318.386C440.139 316.955 435.491 314.716 432.082 311.67C428.673 308.625 426.98 304.523 427.003 299.364C426.98 295.136 428.105 291.443 430.378 288.284C432.673 285.125 435.821 282.659 439.821 280.886C443.821 279.114 448.366 278.227 453.457 278.227C458.639 278.227 463.162 279.114 467.026 280.886C470.912 282.659 473.935 285.125 476.094 288.284C478.253 291.443 479.366 295.102 479.435 299.261H465.287ZM513.909 350.023C508.523 350.023 503.886 348.932 500 346.75C496.136 344.545 493.159 341.432 491.068 337.409C488.977 333.364 487.932 328.58 487.932 323.057C487.932 317.67 488.977 312.943 491.068 308.875C493.159 304.807 496.102 301.636 499.898 299.364C503.716 297.091 508.193 295.955 513.33 295.955C516.784 295.955 520 296.511 522.977 297.625C525.977 298.716 528.591 300.364 530.818 302.568C533.068 304.773 534.818 307.545 536.068 310.886C537.318 314.205 537.943 318.091 537.943 322.545V326.534H493.727V317.534H524.273C524.273 315.443 523.818 313.591 522.909 311.977C522 310.364 520.739 309.102 519.125 308.193C517.534 307.261 515.682 306.795 513.568 306.795C511.364 306.795 509.409 307.307 507.705 308.33C506.023 309.33 504.705 310.682 503.75 312.386C502.795 314.068 502.307 315.943 502.284 318.011V326.568C502.284 329.159 502.761 331.398 503.716 333.284C504.693 335.17 506.068 336.625 507.841 337.648C509.614 338.67 511.716 339.182 514.148 339.182C515.761 339.182 517.239 338.955 518.58 338.5C519.92 338.045 521.068 337.364 522.023 336.455C522.977 335.545 523.705 334.432 524.205 333.114L537.636 334C536.955 337.227 535.557 340.045 533.443 342.455C531.352 344.841 528.648 346.705 525.33 348.045C522.034 349.364 518.227 350.023 513.909 350.023ZM547.42 349V296.636H561.5V305.773H562.045C563 302.523 564.602 300.068 566.852 298.409C569.102 296.727 571.693 295.886 574.625 295.886C575.352 295.886 576.136 295.932 576.977 296.023C577.818 296.114 578.557 296.239 579.193 296.398V309.284C578.511 309.08 577.568 308.898 576.364 308.739C575.159 308.58 574.057 308.5 573.057 308.5C570.92 308.5 569.011 308.966 567.33 309.898C565.67 310.807 564.352 312.08 563.375 313.716C562.42 315.352 561.943 317.239 561.943 319.375V349H547.42ZM637.114 296.636L618.807 349H602.443L584.136 296.636H599.477L610.352 334.102H610.898L621.739 296.636H637.114ZM666.722 350.023C661.335 350.023 656.699 348.932 652.812 346.75C648.949 344.545 645.972 341.432 643.881 337.409C641.79 333.364 640.744 328.58 640.744 323.057C640.744 317.67 641.79 312.943 643.881 308.875C645.972 304.807 648.915 301.636 652.71 299.364C656.528 297.091 661.006 295.955 666.142 295.955C669.597 295.955 672.813 296.511 675.79 297.625C678.79 298.716 681.403 300.364 683.631 302.568C685.881 304.773 687.631 307.545 688.881 310.886C690.131 314.205 690.756 318.091 690.756 322.545V326.534H646.54V317.534H677.085C677.085 315.443 676.631 313.591 675.722 311.977C674.813 310.364 673.551 309.102 671.938 308.193C670.347 307.261 668.494 306.795 666.381 306.795C664.176 306.795 662.222 307.307 660.517 308.33C658.835 309.33 657.517 310.682 656.562 312.386C655.608 314.068 655.119 315.943 655.097 318.011V326.568C655.097 329.159 655.574 331.398 656.528 333.284C657.506 335.17 658.881 336.625 660.653 337.648C662.426 338.67 664.528 339.182 666.96 339.182C668.574 339.182 670.051 338.955 671.392 338.5C672.733 338.045 673.881 337.364 674.835 336.455C675.79 335.545 676.517 334.432 677.017 333.114L690.449 334C689.767 337.227 688.369 340.045 686.256 342.455C684.165 344.841 681.46 346.705 678.142 348.045C674.847 349.364 671.04 350.023 666.722 350.023Z" fill="#5299B7"/>
<path d="M247.659 364.909C247.557 364.045 247.142 363.375 246.415 362.898C245.688 362.42 244.795 362.182 243.739 362.182C242.966 362.182 242.29 362.307 241.71 362.557C241.136 362.807 240.688 363.151 240.364 363.588C240.045 364.026 239.886 364.523 239.886 365.08C239.886 365.545 239.997 365.946 240.219 366.281C240.446 366.611 240.736 366.886 241.088 367.108C241.44 367.324 241.81 367.503 242.196 367.645C242.582 367.781 242.938 367.892 243.261 367.977L245.034 368.455C245.489 368.574 245.994 368.739 246.551 368.949C247.114 369.159 247.651 369.446 248.162 369.81C248.679 370.168 249.105 370.628 249.44 371.19C249.776 371.753 249.943 372.443 249.943 373.261C249.943 374.205 249.696 375.057 249.202 375.818C248.713 376.58 247.997 377.185 247.054 377.634C246.116 378.082 244.977 378.307 243.636 378.307C242.386 378.307 241.304 378.105 240.389 377.702C239.48 377.298 238.764 376.736 238.241 376.014C237.724 375.293 237.432 374.455 237.364 373.5H239.545C239.602 374.159 239.824 374.705 240.21 375.136C240.602 375.562 241.097 375.881 241.693 376.091C242.295 376.295 242.943 376.398 243.636 376.398C244.443 376.398 245.168 376.267 245.81 376.006C246.452 375.739 246.96 375.369 247.335 374.898C247.71 374.42 247.898 373.864 247.898 373.227C247.898 372.648 247.736 372.176 247.412 371.812C247.088 371.449 246.662 371.153 246.134 370.926C245.605 370.699 245.034 370.5 244.42 370.33L242.273 369.716C240.909 369.324 239.83 368.764 239.034 368.037C238.239 367.31 237.841 366.358 237.841 365.182C237.841 364.205 238.105 363.352 238.634 362.625C239.168 361.892 239.884 361.324 240.781 360.92C241.685 360.511 242.693 360.307 243.807 360.307C244.932 360.307 245.932 360.509 246.807 360.912C247.682 361.31 248.375 361.855 248.886 362.548C249.403 363.241 249.676 364.028 249.705 364.909H247.659ZM258.634 378.273C257.373 378.273 256.285 377.994 255.37 377.438C254.461 376.875 253.759 376.091 253.265 375.085C252.776 374.074 252.532 372.898 252.532 371.557C252.532 370.216 252.776 369.034 253.265 368.011C253.759 366.983 254.447 366.182 255.327 365.608C256.214 365.028 257.248 364.739 258.43 364.739C259.112 364.739 259.785 364.852 260.45 365.08C261.114 365.307 261.719 365.676 262.265 366.188C262.81 366.693 263.245 367.364 263.569 368.199C263.893 369.034 264.055 370.062 264.055 371.284V372.136H253.964V370.398H262.009C262.009 369.659 261.862 369 261.566 368.42C261.276 367.841 260.862 367.384 260.322 367.048C259.788 366.713 259.157 366.545 258.43 366.545C257.629 366.545 256.935 366.744 256.35 367.142C255.771 367.534 255.325 368.045 255.012 368.676C254.7 369.307 254.543 369.983 254.543 370.705V371.864C254.543 372.852 254.714 373.69 255.055 374.378C255.401 375.06 255.881 375.58 256.495 375.938C257.109 376.29 257.822 376.466 258.634 376.466C259.163 376.466 259.64 376.392 260.066 376.244C260.498 376.091 260.87 375.864 261.183 375.562C261.495 375.256 261.737 374.875 261.907 374.42L263.85 374.966C263.646 375.625 263.302 376.205 262.819 376.705C262.336 377.199 261.739 377.585 261.029 377.864C260.319 378.136 259.521 378.273 258.634 378.273ZM267.114 378V364.909H269.058V366.886H269.194C269.433 366.239 269.864 365.713 270.489 365.31C271.114 364.906 271.819 364.705 272.603 364.705C272.751 364.705 272.935 364.707 273.157 364.713C273.379 364.719 273.546 364.727 273.66 364.739V366.784C273.592 366.767 273.435 366.741 273.191 366.707C272.952 366.668 272.7 366.648 272.433 366.648C271.796 366.648 271.228 366.781 270.728 367.048C270.234 367.31 269.842 367.673 269.552 368.139C269.268 368.599 269.126 369.125 269.126 369.716V378H267.114ZM287.147 364.909L282.306 378H280.261L275.42 364.909H277.602L281.215 375.341H281.352L284.965 364.909H287.147ZM294.822 378.273C293.56 378.273 292.472 377.994 291.558 377.438C290.648 376.875 289.947 376.091 289.452 375.085C288.964 374.074 288.719 372.898 288.719 371.557C288.719 370.216 288.964 369.034 289.452 368.011C289.947 366.983 290.634 366.182 291.515 365.608C292.401 365.028 293.435 364.739 294.617 364.739C295.299 364.739 295.972 364.852 296.637 365.08C297.302 365.307 297.907 365.676 298.452 366.188C298.998 366.693 299.433 367.364 299.756 368.199C300.08 369.034 300.242 370.062 300.242 371.284V372.136H290.151V370.398H298.197C298.197 369.659 298.049 369 297.754 368.42C297.464 367.841 297.049 367.384 296.509 367.048C295.975 366.713 295.344 366.545 294.617 366.545C293.816 366.545 293.123 366.744 292.538 367.142C291.958 367.534 291.512 368.045 291.2 368.676C290.887 369.307 290.731 369.983 290.731 370.705V371.864C290.731 372.852 290.901 373.69 291.242 374.378C291.589 375.06 292.069 375.58 292.683 375.938C293.296 376.29 294.009 376.466 294.822 376.466C295.35 376.466 295.827 376.392 296.254 376.244C296.685 376.091 297.058 375.864 297.37 375.562C297.683 375.256 297.924 374.875 298.094 374.42L300.038 374.966C299.833 375.625 299.489 376.205 299.006 376.705C298.523 377.199 297.927 377.585 297.217 377.864C296.506 378.136 295.708 378.273 294.822 378.273ZM310.325 378V360.545H312.438V368.318H321.745V360.545H323.859V378H321.745V370.193H312.438V378H310.325ZM327.136 362.42V360.545H340.227V362.42H334.738V378H332.624V362.42H327.136ZM343.489 360.545H346.011L351.943 375.034H352.148L358.08 360.545H360.602V378H358.625V364.739H358.455L353 378H351.091L345.636 364.739H345.466V378H343.489V360.545ZM364.84 378V360.545H366.954V376.125H375.067V378H364.84ZM381.067 375.614L380.931 376.534C380.835 377.182 380.687 377.875 380.488 378.614C380.295 379.352 380.093 380.048 379.883 380.702C379.673 381.355 379.499 381.875 379.363 382.261H377.829C377.903 381.898 377.999 381.418 378.119 380.821C378.238 380.224 378.357 379.557 378.477 378.818C378.602 378.085 378.704 377.335 378.783 376.568L378.886 375.614H381.067ZM405.862 366H403.749C403.624 365.392 403.405 364.858 403.092 364.398C402.786 363.938 402.411 363.551 401.967 363.239C401.53 362.92 401.044 362.682 400.51 362.523C399.976 362.364 399.419 362.284 398.839 362.284C397.783 362.284 396.825 362.551 395.967 363.085C395.115 363.619 394.436 364.406 393.93 365.446C393.43 366.486 393.18 367.761 393.18 369.273C393.18 370.784 393.43 372.06 393.93 373.099C394.436 374.139 395.115 374.926 395.967 375.46C396.825 375.994 397.783 376.261 398.839 376.261C399.419 376.261 399.976 376.182 400.51 376.023C401.044 375.864 401.53 375.628 401.967 375.315C402.411 374.997 402.786 374.608 403.092 374.148C403.405 373.682 403.624 373.148 403.749 372.545H405.862C405.703 373.437 405.413 374.236 404.993 374.94C404.572 375.645 404.05 376.244 403.425 376.739C402.8 377.227 402.098 377.599 401.32 377.855C400.547 378.111 399.72 378.239 398.839 378.239C397.351 378.239 396.027 377.875 394.868 377.148C393.709 376.42 392.797 375.386 392.132 374.045C391.467 372.705 391.135 371.114 391.135 369.273C391.135 367.432 391.467 365.841 392.132 364.5C392.797 363.159 393.709 362.125 394.868 361.398C396.027 360.67 397.351 360.307 398.839 360.307C399.72 360.307 400.547 360.435 401.32 360.69C402.098 360.946 402.8 361.321 403.425 361.815C404.05 362.304 404.572 362.901 404.993 363.605C405.413 364.304 405.703 365.102 405.862 366ZM418.823 364.909C418.721 364.045 418.306 363.375 417.579 362.898C416.852 362.42 415.96 362.182 414.903 362.182C414.13 362.182 413.454 362.307 412.874 362.557C412.3 362.807 411.852 363.151 411.528 363.588C411.21 364.026 411.05 364.523 411.05 365.08C411.05 365.545 411.161 365.946 411.383 366.281C411.61 366.611 411.9 366.886 412.252 367.108C412.604 367.324 412.974 367.503 413.36 367.645C413.746 367.781 414.102 367.892 414.425 367.977L416.198 368.455C416.653 368.574 417.158 368.739 417.715 368.949C418.278 369.159 418.815 369.446 419.326 369.81C419.843 370.168 420.269 370.628 420.604 371.19C420.94 371.753 421.107 372.443 421.107 373.261C421.107 374.205 420.86 375.057 420.366 375.818C419.877 376.58 419.161 377.185 418.218 377.634C417.281 378.082 416.141 378.307 414.8 378.307C413.55 378.307 412.468 378.105 411.553 377.702C410.644 377.298 409.928 376.736 409.406 376.014C408.888 375.293 408.596 374.455 408.528 373.5H410.71C410.766 374.159 410.988 374.705 411.374 375.136C411.766 375.562 412.261 375.881 412.857 376.091C413.46 376.295 414.107 376.398 414.8 376.398C415.607 376.398 416.332 376.267 416.974 376.006C417.616 375.739 418.124 375.369 418.499 374.898C418.874 374.42 419.062 373.864 419.062 373.227C419.062 372.648 418.9 372.176 418.576 371.812C418.252 371.449 417.826 371.153 417.298 370.926C416.769 370.699 416.198 370.5 415.585 370.33L413.437 369.716C412.073 369.324 410.994 368.764 410.198 368.037C409.403 367.31 409.005 366.358 409.005 365.182C409.005 364.205 409.269 363.352 409.798 362.625C410.332 361.892 411.048 361.324 411.945 360.92C412.849 360.511 413.857 360.307 414.971 360.307C416.096 360.307 417.096 360.509 417.971 360.912C418.846 361.31 419.539 361.855 420.05 362.548C420.567 363.241 420.84 364.028 420.869 364.909H418.823ZM434.128 364.909C434.026 364.045 433.611 363.375 432.884 362.898C432.156 362.42 431.264 362.182 430.207 362.182C429.435 362.182 428.759 362.307 428.179 362.557C427.605 362.807 427.156 363.151 426.832 363.588C426.514 364.026 426.355 364.523 426.355 365.08C426.355 365.545 426.466 365.946 426.688 366.281C426.915 366.611 427.205 366.886 427.557 367.108C427.909 367.324 428.278 367.503 428.665 367.645C429.051 367.781 429.406 367.892 429.73 367.977L431.503 368.455C431.957 368.574 432.463 368.739 433.02 368.949C433.582 369.159 434.119 369.446 434.631 369.81C435.148 370.168 435.574 370.628 435.909 371.19C436.244 371.753 436.412 372.443 436.412 373.261C436.412 374.205 436.165 375.057 435.67 375.818C435.182 376.58 434.466 377.185 433.523 377.634C432.585 378.082 431.446 378.307 430.105 378.307C428.855 378.307 427.773 378.105 426.858 377.702C425.949 377.298 425.233 376.736 424.71 376.014C424.193 375.293 423.901 374.455 423.832 373.5H426.014C426.071 374.159 426.293 374.705 426.679 375.136C427.071 375.562 427.565 375.881 428.162 376.091C428.764 376.295 429.412 376.398 430.105 376.398C430.912 376.398 431.636 376.267 432.278 376.006C432.92 375.739 433.429 375.369 433.804 374.898C434.179 374.42 434.366 373.864 434.366 373.227C434.366 372.648 434.205 372.176 433.881 371.812C433.557 371.449 433.131 371.153 432.602 370.926C432.074 370.699 431.503 370.5 430.889 370.33L428.741 369.716C427.378 369.324 426.298 368.764 425.503 368.037C424.707 367.31 424.31 366.358 424.31 365.182C424.31 364.205 424.574 363.352 425.102 362.625C425.636 361.892 426.352 361.324 427.25 360.92C428.153 360.511 429.162 360.307 430.276 360.307C431.401 360.307 432.401 360.509 433.276 360.912C434.151 361.31 434.844 361.855 435.355 362.548C435.872 363.241 436.145 364.028 436.173 364.909H434.128ZM442.614 375.614L442.478 376.534C442.381 377.182 442.234 377.875 442.035 378.614C441.842 379.352 441.64 380.048 441.43 380.702C441.219 381.355 441.046 381.875 440.91 382.261H439.376C439.45 381.898 439.546 381.418 439.665 380.821C439.785 380.224 439.904 379.557 440.023 378.818C440.148 378.085 440.251 377.335 440.33 376.568L440.433 375.614H442.614ZM460.045 360.545H462.159V373.023C462.159 374.136 461.955 375.082 461.545 375.861C461.136 376.639 460.56 377.23 459.815 377.634C459.071 378.037 458.193 378.239 457.182 378.239C456.227 378.239 455.378 378.065 454.634 377.719C453.889 377.366 453.304 376.866 452.878 376.219C452.452 375.571 452.239 374.801 452.239 373.909H454.318C454.318 374.403 454.44 374.835 454.685 375.205C454.935 375.568 455.276 375.852 455.707 376.057C456.139 376.261 456.631 376.364 457.182 376.364C457.79 376.364 458.307 376.236 458.733 375.98C459.159 375.724 459.483 375.349 459.705 374.855C459.932 374.355 460.045 373.744 460.045 373.023V360.545ZM469.974 378.307C469.145 378.307 468.392 378.151 467.716 377.838C467.04 377.52 466.503 377.062 466.105 376.466C465.707 375.864 465.509 375.136 465.509 374.284C465.509 373.534 465.656 372.926 465.952 372.46C466.247 371.989 466.642 371.619 467.136 371.352C467.631 371.085 468.176 370.886 468.773 370.756C469.375 370.619 469.98 370.511 470.588 370.432C471.384 370.33 472.028 370.253 472.523 370.202C473.023 370.145 473.386 370.051 473.614 369.92C473.847 369.79 473.963 369.562 473.963 369.239V369.17C473.963 368.33 473.733 367.676 473.273 367.21C472.818 366.744 472.128 366.511 471.202 366.511C470.241 366.511 469.489 366.722 468.943 367.142C468.398 367.562 468.014 368.011 467.793 368.489L465.884 367.807C466.224 367.011 466.679 366.392 467.247 365.949C467.821 365.5 468.446 365.187 469.122 365.011C469.804 364.83 470.474 364.739 471.134 364.739C471.554 364.739 472.037 364.79 472.582 364.892C473.134 364.989 473.665 365.19 474.176 365.497C474.693 365.804 475.122 366.267 475.463 366.886C475.804 367.506 475.974 368.335 475.974 369.375V378H473.963V376.227H473.861C473.724 376.511 473.497 376.815 473.179 377.139C472.861 377.463 472.438 377.739 471.909 377.966C471.381 378.193 470.736 378.307 469.974 378.307ZM470.281 376.5C471.077 376.5 471.747 376.344 472.293 376.031C472.844 375.719 473.259 375.315 473.537 374.821C473.821 374.327 473.963 373.807 473.963 373.261V371.42C473.878 371.523 473.69 371.616 473.401 371.702C473.116 371.781 472.787 371.852 472.412 371.915C472.043 371.972 471.682 372.023 471.33 372.068C470.983 372.108 470.702 372.142 470.486 372.17C469.963 372.239 469.474 372.349 469.02 372.503C468.571 372.651 468.207 372.875 467.929 373.176C467.656 373.472 467.52 373.875 467.52 374.386C467.52 375.085 467.778 375.614 468.295 375.972C468.818 376.324 469.48 376.5 470.281 376.5ZM489.881 364.909L485.04 378H482.995L478.154 364.909H480.336L483.95 375.341H484.086L487.7 364.909H489.881ZM495.99 378.307C495.161 378.307 494.408 378.151 493.732 377.838C493.055 377.52 492.518 377.062 492.121 376.466C491.723 375.864 491.524 375.136 491.524 374.284C491.524 373.534 491.672 372.926 491.967 372.46C492.263 371.989 492.658 371.619 493.152 371.352C493.646 371.085 494.192 370.886 494.788 370.756C495.391 370.619 495.996 370.511 496.604 370.432C497.399 370.33 498.044 370.253 498.538 370.202C499.038 370.145 499.402 370.051 499.629 369.92C499.862 369.79 499.979 369.562 499.979 369.239V369.17C499.979 368.33 499.749 367.676 499.288 367.21C498.834 366.744 498.143 366.511 497.217 366.511C496.257 366.511 495.504 366.722 494.959 367.142C494.413 367.562 494.03 368.011 493.808 368.489L491.899 367.807C492.24 367.011 492.695 366.392 493.263 365.949C493.837 365.5 494.462 365.187 495.138 365.011C495.82 364.83 496.49 364.739 497.149 364.739C497.57 364.739 498.053 364.79 498.598 364.892C499.149 364.989 499.68 365.19 500.192 365.497C500.709 365.804 501.138 366.267 501.479 366.886C501.82 367.506 501.99 368.335 501.99 369.375V378H499.979V376.227H499.876C499.74 376.511 499.513 376.815 499.195 377.139C498.876 377.463 498.453 377.739 497.925 377.966C497.396 378.193 496.751 378.307 495.99 378.307ZM496.297 376.5C497.092 376.5 497.763 376.344 498.308 376.031C498.859 375.719 499.274 375.315 499.553 374.821C499.837 374.327 499.979 373.807 499.979 373.261V371.42C499.893 371.523 499.706 371.616 499.416 371.702C499.132 371.781 498.803 371.852 498.428 371.915C498.058 371.972 497.697 372.023 497.345 372.068C496.999 372.108 496.717 372.142 496.501 372.17C495.979 372.239 495.49 372.349 495.036 372.503C494.587 372.651 494.223 372.875 493.945 373.176C493.672 373.472 493.536 373.875 493.536 374.386C493.536 375.085 493.794 375.614 494.311 375.972C494.834 376.324 495.496 376.5 496.297 376.5ZM515.479 364.909C515.377 364.045 514.962 363.375 514.235 362.898C513.508 362.42 512.616 362.182 511.559 362.182C510.786 362.182 510.11 362.307 509.531 362.557C508.957 362.807 508.508 363.151 508.184 363.588C507.866 364.026 507.707 364.523 507.707 365.08C507.707 365.545 507.817 365.946 508.039 366.281C508.266 366.611 508.556 366.886 508.908 367.108C509.261 367.324 509.63 367.503 510.016 367.645C510.403 367.781 510.758 367.892 511.082 367.977L512.854 368.455C513.309 368.574 513.815 368.739 514.371 368.949C514.934 369.159 515.471 369.446 515.982 369.81C516.499 370.168 516.925 370.628 517.261 371.19C517.596 371.753 517.763 372.443 517.763 373.261C517.763 374.205 517.516 375.057 517.022 375.818C516.533 376.58 515.817 377.185 514.874 377.634C513.937 378.082 512.798 378.307 511.457 378.307C510.207 378.307 509.124 378.105 508.21 377.702C507.3 377.298 506.585 376.736 506.062 376.014C505.545 375.293 505.252 374.455 505.184 373.5H507.366C507.423 374.159 507.644 374.705 508.031 375.136C508.423 375.562 508.917 375.881 509.513 376.091C510.116 376.295 510.763 376.398 511.457 376.398C512.263 376.398 512.988 376.267 513.63 376.006C514.272 375.739 514.781 375.369 515.156 374.898C515.531 374.42 515.718 373.864 515.718 373.227C515.718 372.648 515.556 372.176 515.232 371.812C514.908 371.449 514.482 371.153 513.954 370.926C513.425 370.699 512.854 370.5 512.241 370.33L510.093 369.716C508.729 369.324 507.65 368.764 506.854 368.037C506.059 367.31 505.661 366.358 505.661 365.182C505.661 364.205 505.925 363.352 506.454 362.625C506.988 361.892 507.704 361.324 508.602 360.92C509.505 360.511 510.513 360.307 511.627 360.307C512.752 360.307 513.752 360.509 514.627 360.912C515.502 361.31 516.195 361.855 516.707 362.548C517.224 363.241 517.496 364.028 517.525 364.909H515.479ZM526.284 378.273C525.057 378.273 524 377.983 523.114 377.403C522.227 376.824 521.545 376.026 521.068 375.009C520.591 373.991 520.352 372.83 520.352 371.523C520.352 370.193 520.597 369.02 521.085 368.003C521.58 366.98 522.267 366.182 523.148 365.608C524.034 365.028 525.068 364.739 526.25 364.739C527.17 364.739 528 364.909 528.739 365.25C529.477 365.591 530.082 366.068 530.554 366.682C531.026 367.295 531.318 368.011 531.432 368.83H529.42C529.267 368.233 528.926 367.705 528.398 367.244C527.875 366.778 527.17 366.545 526.284 366.545C525.5 366.545 524.813 366.75 524.222 367.159C523.636 367.562 523.179 368.134 522.849 368.872C522.526 369.605 522.364 370.466 522.364 371.455C522.364 372.466 522.523 373.347 522.841 374.097C523.165 374.847 523.619 375.429 524.205 375.844C524.795 376.259 525.489 376.466 526.284 376.466C526.807 376.466 527.281 376.375 527.707 376.193C528.134 376.011 528.494 375.75 528.79 375.409C529.085 375.068 529.295 374.659 529.42 374.182H531.432C531.318 374.955 531.037 375.651 530.588 376.27C530.145 376.884 529.557 377.372 528.824 377.736C528.097 378.094 527.25 378.273 526.284 378.273ZM534.372 378V364.909H536.315V366.886H536.452C536.69 366.239 537.122 365.713 537.747 365.31C538.372 364.906 539.077 364.705 539.861 364.705C540.009 364.705 540.193 364.707 540.415 364.713C540.636 364.719 540.804 364.727 540.918 364.739V366.784C540.849 366.767 540.693 366.741 540.449 366.707C540.21 366.668 539.957 366.648 539.69 366.648C539.054 366.648 538.486 366.781 537.986 367.048C537.491 367.31 537.099 367.673 536.81 368.139C536.526 368.599 536.384 369.125 536.384 369.716V378H534.372ZM543.302 378V364.909H545.313V378H543.302ZM544.325 362.727C543.933 362.727 543.594 362.594 543.31 362.327C543.032 362.06 542.893 361.739 542.893 361.364C542.893 360.989 543.032 360.668 543.31 360.401C543.594 360.134 543.933 360 544.325 360C544.717 360 545.052 360.134 545.33 360.401C545.614 360.668 545.756 360.989 545.756 361.364C545.756 361.739 545.614 362.06 545.33 362.327C545.052 362.594 544.717 362.727 544.325 362.727ZM548.997 382.909V364.909H550.94V366.989H551.179C551.327 366.761 551.531 366.472 551.793 366.119C552.06 365.761 552.44 365.443 552.935 365.165C553.435 364.881 554.111 364.739 554.963 364.739C556.065 364.739 557.037 365.014 557.878 365.565C558.719 366.116 559.375 366.898 559.847 367.909C560.318 368.92 560.554 370.114 560.554 371.489C560.554 372.875 560.318 374.077 559.847 375.094C559.375 376.105 558.722 376.889 557.886 377.446C557.051 377.997 556.088 378.273 554.997 378.273C554.156 378.273 553.483 378.134 552.977 377.855C552.472 377.571 552.082 377.25 551.81 376.892C551.537 376.528 551.327 376.227 551.179 375.989H551.009V382.909H548.997ZM550.974 371.455C550.974 372.443 551.119 373.315 551.409 374.071C551.699 374.821 552.122 375.409 552.679 375.835C553.236 376.256 553.918 376.466 554.724 376.466C555.565 376.466 556.267 376.244 556.83 375.801C557.398 375.352 557.824 374.75 558.108 373.994C558.398 373.233 558.543 372.386 558.543 371.455C558.543 370.534 558.401 369.705 558.116 368.966C557.838 368.222 557.415 367.634 556.847 367.202C556.284 366.764 555.577 366.545 554.724 366.545C553.906 366.545 553.219 366.753 552.662 367.168C552.105 367.577 551.685 368.151 551.401 368.889C551.116 369.622 550.974 370.477 550.974 371.455ZM569.315 364.909V366.614H562.531V364.909H569.315ZM564.509 361.773H566.52V374.25C566.52 374.818 566.602 375.244 566.767 375.528C566.938 375.807 567.153 375.994 567.415 376.091C567.682 376.182 567.963 376.227 568.259 376.227C568.48 376.227 568.662 376.216 568.804 376.193C568.946 376.165 569.06 376.142 569.145 376.125L569.554 377.932C569.418 377.983 569.227 378.034 568.983 378.085C568.739 378.142 568.429 378.17 568.054 378.17C567.486 378.17 566.929 378.048 566.384 377.804C565.844 377.56 565.395 377.188 565.037 376.688C564.685 376.188 564.509 375.557 564.509 374.795V361.773ZM584.92 364.909V366.614H577.864V364.909H584.92ZM579.977 378V363.102C579.977 362.352 580.153 361.727 580.506 361.227C580.858 360.727 581.315 360.352 581.878 360.102C582.44 359.852 583.034 359.727 583.659 359.727C584.153 359.727 584.557 359.767 584.869 359.847C585.182 359.926 585.415 360 585.568 360.068L584.989 361.807C584.886 361.773 584.744 361.73 584.562 361.679C584.386 361.628 584.153 361.602 583.864 361.602C583.199 361.602 582.719 361.77 582.423 362.105C582.134 362.44 581.989 362.932 581.989 363.58V378H579.977ZM587.739 378V364.909H589.751V378H587.739ZM588.762 362.727C588.37 362.727 588.032 362.594 587.748 362.327C587.469 362.06 587.33 361.739 587.33 361.364C587.33 360.989 587.469 360.668 587.748 360.401C588.032 360.134 588.37 360 588.762 360C589.154 360 589.489 360.134 589.768 360.401C590.052 360.668 590.194 360.989 590.194 361.364C590.194 361.739 590.052 362.06 589.768 362.327C589.489 362.594 589.154 362.727 588.762 362.727ZM595.446 360.545V378H593.435V360.545H595.446ZM604.619 378.273C603.357 378.273 602.269 377.994 601.354 377.438C600.445 376.875 599.744 376.091 599.249 375.085C598.761 374.074 598.516 372.898 598.516 371.557C598.516 370.216 598.761 369.034 599.249 368.011C599.744 366.983 600.431 366.182 601.312 365.608C602.198 365.028 603.232 364.739 604.414 364.739C605.096 364.739 605.769 364.852 606.434 365.08C607.099 365.307 607.704 365.676 608.249 366.188C608.795 366.693 609.229 367.364 609.553 368.199C609.877 369.034 610.039 370.062 610.039 371.284V372.136H599.948V370.398H607.994C607.994 369.659 607.846 369 607.55 368.42C607.261 367.841 606.846 367.384 606.306 367.048C605.772 366.713 605.141 366.545 604.414 366.545C603.613 366.545 602.92 366.744 602.335 367.142C601.755 367.534 601.309 368.045 600.996 368.676C600.684 369.307 600.528 369.983 600.528 370.705V371.864C600.528 372.852 600.698 373.69 601.039 374.378C601.386 375.06 601.866 375.58 602.479 375.938C603.093 376.29 603.806 376.466 604.619 376.466C605.147 376.466 605.624 376.392 606.05 376.244C606.482 376.091 606.854 375.864 607.167 375.562C607.479 375.256 607.721 374.875 607.891 374.42L609.835 374.966C609.63 375.625 609.286 376.205 608.803 376.705C608.32 377.199 607.724 377.585 607.013 377.864C606.303 378.136 605.505 378.273 604.619 378.273ZM622.371 367.841L620.565 368.352C620.451 368.051 620.283 367.759 620.062 367.474C619.846 367.185 619.55 366.946 619.175 366.759C618.8 366.571 618.32 366.477 617.735 366.477C616.934 366.477 616.266 366.662 615.732 367.031C615.204 367.395 614.94 367.858 614.94 368.42C614.94 368.92 615.121 369.315 615.485 369.605C615.849 369.895 616.417 370.136 617.19 370.33L619.133 370.807C620.303 371.091 621.175 371.526 621.749 372.111C622.323 372.69 622.61 373.437 622.61 374.352C622.61 375.102 622.394 375.773 621.962 376.364C621.536 376.955 620.94 377.42 620.173 377.761C619.406 378.102 618.513 378.273 617.496 378.273C616.161 378.273 615.056 377.983 614.181 377.403C613.306 376.824 612.752 375.977 612.519 374.864L614.428 374.386C614.61 375.091 614.954 375.619 615.46 375.972C615.971 376.324 616.638 376.5 617.462 376.5C618.4 376.5 619.144 376.301 619.695 375.903C620.252 375.5 620.531 375.017 620.531 374.455C620.531 374 620.371 373.619 620.053 373.312C619.735 373 619.246 372.767 618.587 372.614L616.406 372.102C615.207 371.818 614.326 371.378 613.763 370.781C613.207 370.179 612.928 369.426 612.928 368.523C612.928 367.784 613.136 367.131 613.55 366.562C613.971 365.994 614.542 365.548 615.263 365.224C615.991 364.901 616.815 364.739 617.735 364.739C619.031 364.739 620.048 365.023 620.786 365.591C621.531 366.159 622.059 366.909 622.371 367.841ZM640.638 372.648V364.909H642.649V378H640.638V375.784H640.501C640.195 376.449 639.717 377.014 639.07 377.48C638.422 377.94 637.604 378.17 636.615 378.17C635.797 378.17 635.07 377.991 634.433 377.634C633.797 377.27 633.297 376.724 632.933 375.997C632.57 375.264 632.388 374.341 632.388 373.227V364.909H634.399V373.091C634.399 374.045 634.666 374.807 635.2 375.375C635.74 375.943 636.428 376.227 637.263 376.227C637.763 376.227 638.271 376.099 638.788 375.844C639.311 375.588 639.749 375.196 640.101 374.668C640.459 374.139 640.638 373.466 640.638 372.648ZM655.606 367.841L653.799 368.352C653.685 368.051 653.518 367.759 653.296 367.474C653.08 367.185 652.785 366.946 652.41 366.759C652.035 366.571 651.555 366.477 650.969 366.477C650.168 366.477 649.501 366.662 648.967 367.031C648.438 367.395 648.174 367.858 648.174 368.42C648.174 368.92 648.356 369.315 648.719 369.605C649.083 369.895 649.651 370.136 650.424 370.33L652.367 370.807C653.538 371.091 654.41 371.526 654.984 372.111C655.558 372.69 655.844 373.437 655.844 374.352C655.844 375.102 655.629 375.773 655.197 376.364C654.771 376.955 654.174 377.42 653.407 377.761C652.64 378.102 651.748 378.273 650.731 378.273C649.396 378.273 648.29 377.983 647.415 377.403C646.54 376.824 645.987 375.977 645.754 374.864L647.663 374.386C647.844 375.091 648.188 375.619 648.694 375.972C649.205 376.324 649.873 376.5 650.697 376.5C651.634 376.5 652.379 376.301 652.93 375.903C653.487 375.5 653.765 375.017 653.765 374.455C653.765 374 653.606 373.619 653.288 373.312C652.969 373 652.481 372.767 651.822 372.614L649.64 372.102C648.441 371.818 647.56 371.378 646.998 370.781C646.441 370.179 646.163 369.426 646.163 368.523C646.163 367.784 646.37 367.131 646.785 366.562C647.205 365.994 647.776 365.548 648.498 365.224C649.225 364.901 650.049 364.739 650.969 364.739C652.265 364.739 653.282 365.023 654.021 365.591C654.765 366.159 655.293 366.909 655.606 367.841ZM658.872 378V364.909H660.884V378H658.872ZM659.895 362.727C659.503 362.727 659.165 362.594 658.881 362.327C658.602 362.06 658.463 361.739 658.463 361.364C658.463 360.989 658.602 360.668 658.881 360.401C659.165 360.134 659.503 360 659.895 360C660.287 360 660.622 360.134 660.901 360.401C661.185 360.668 661.327 360.989 661.327 361.364C661.327 361.739 661.185 362.06 660.901 362.327C660.622 362.594 660.287 362.727 659.895 362.727ZM666.579 370.125V378H664.567V364.909H666.511V366.955H666.681C666.988 366.29 667.454 365.756 668.079 365.352C668.704 364.943 669.511 364.739 670.499 364.739C671.386 364.739 672.161 364.92 672.826 365.284C673.491 365.642 674.008 366.188 674.377 366.92C674.746 367.648 674.931 368.568 674.931 369.682V378H672.92V369.818C672.92 368.79 672.653 367.989 672.119 367.415C671.585 366.835 670.852 366.545 669.92 366.545C669.278 366.545 668.704 366.685 668.198 366.963C667.698 367.241 667.303 367.648 667.013 368.182C666.724 368.716 666.579 369.364 666.579 370.125ZM683.891 383.182C682.919 383.182 682.084 383.057 681.385 382.807C680.686 382.562 680.104 382.239 679.638 381.835C679.178 381.438 678.811 381.011 678.538 380.557L680.141 379.432C680.322 379.67 680.553 379.943 680.831 380.25C681.109 380.562 681.49 380.832 681.973 381.06C682.462 381.293 683.101 381.409 683.891 381.409C684.947 381.409 685.82 381.153 686.507 380.642C687.195 380.131 687.538 379.33 687.538 378.239V375.58H687.368C687.22 375.818 687.01 376.114 686.737 376.466C686.47 376.812 686.084 377.122 685.578 377.395C685.078 377.662 684.402 377.795 683.55 377.795C682.493 377.795 681.544 377.545 680.703 377.045C679.868 376.545 679.206 375.818 678.717 374.864C678.234 373.909 677.993 372.75 677.993 371.386C677.993 370.045 678.229 368.878 678.7 367.884C679.172 366.884 679.828 366.111 680.669 365.565C681.51 365.014 682.482 364.739 683.584 364.739C684.436 364.739 685.112 364.881 685.612 365.165C686.118 365.443 686.504 365.761 686.771 366.119C687.044 366.472 687.254 366.761 687.402 366.989H687.607V364.909H689.55V378.375C689.55 379.5 689.294 380.415 688.783 381.119C688.277 381.83 687.595 382.349 686.737 382.679C685.885 383.014 684.936 383.182 683.891 383.182ZM683.822 375.989C684.629 375.989 685.311 375.804 685.868 375.435C686.425 375.065 686.848 374.534 687.138 373.841C687.428 373.148 687.572 372.318 687.572 371.352C687.572 370.409 687.43 369.577 687.146 368.855C686.862 368.134 686.442 367.568 685.885 367.159C685.328 366.75 684.641 366.545 683.822 366.545C682.97 366.545 682.26 366.761 681.692 367.193C681.129 367.625 680.706 368.205 680.422 368.932C680.143 369.659 680.004 370.466 680.004 371.352C680.004 372.261 680.146 373.065 680.43 373.764C680.72 374.457 681.146 375.003 681.709 375.401C682.277 375.793 682.982 375.989 683.822 375.989ZM705.3 378.273C704.118 378.273 703.081 377.991 702.189 377.429C701.303 376.866 700.609 376.08 700.109 375.068C699.615 374.057 699.368 372.875 699.368 371.523C699.368 370.159 699.615 368.969 700.109 367.952C700.609 366.935 701.303 366.145 702.189 365.582C703.081 365.02 704.118 364.739 705.3 364.739C706.482 364.739 707.516 365.02 708.402 365.582C709.294 366.145 709.987 366.935 710.482 367.952C710.982 368.969 711.232 370.159 711.232 371.523C711.232 372.875 710.982 374.057 710.482 375.068C709.987 376.08 709.294 376.866 708.402 377.429C707.516 377.991 706.482 378.273 705.3 378.273ZM705.3 376.466C706.197 376.466 706.936 376.236 707.516 375.776C708.095 375.315 708.524 374.71 708.803 373.96C709.081 373.21 709.22 372.398 709.22 371.523C709.22 370.648 709.081 369.832 708.803 369.077C708.524 368.321 708.095 367.71 707.516 367.244C706.936 366.778 706.197 366.545 705.3 366.545C704.402 366.545 703.663 366.778 703.084 367.244C702.504 367.71 702.075 368.321 701.797 369.077C701.518 369.832 701.379 370.648 701.379 371.523C701.379 372.398 701.518 373.21 701.797 373.96C702.075 374.71 702.504 375.315 703.084 375.776C703.663 376.236 704.402 376.466 705.3 376.466ZM716.313 370.125V378H714.302V364.909H716.245V366.955H716.415C716.722 366.29 717.188 365.756 717.813 365.352C718.438 364.943 719.245 364.739 720.234 364.739C721.12 364.739 721.896 364.92 722.56 365.284C723.225 365.642 723.742 366.188 724.112 366.92C724.481 367.648 724.665 368.568 724.665 369.682V378H722.654V369.818C722.654 368.79 722.387 367.989 721.853 367.415C721.319 366.835 720.586 366.545 719.654 366.545C719.012 366.545 718.438 366.685 717.933 366.963C717.433 367.241 717.038 367.648 716.748 368.182C716.458 368.716 716.313 369.364 716.313 370.125ZM730.352 360.545V378H728.341V360.545H730.352ZM735.332 382.909C734.991 382.909 734.687 382.881 734.42 382.824C734.153 382.773 733.968 382.722 733.866 382.67L734.377 380.898C734.866 381.023 735.298 381.068 735.673 381.034C736.048 381 736.38 380.832 736.67 380.531C736.965 380.236 737.235 379.756 737.479 379.091L737.854 378.068L733.013 364.909H735.195L738.809 375.341H738.945L742.559 364.909H744.741L739.184 379.909C738.934 380.585 738.624 381.145 738.255 381.588C737.886 382.037 737.457 382.369 736.968 382.585C736.485 382.801 735.94 382.909 735.332 382.909ZM757.998 378.307C757.168 378.307 756.415 378.151 755.739 377.838C755.063 377.52 754.526 377.062 754.129 376.466C753.731 375.864 753.532 375.136 753.532 374.284C753.532 373.534 753.68 372.926 753.975 372.46C754.271 371.989 754.665 371.619 755.16 371.352C755.654 371.085 756.2 370.886 756.796 370.756C757.398 370.619 758.004 370.511 758.612 370.432C759.407 370.33 760.052 370.253 760.546 370.202C761.046 370.145 761.41 370.051 761.637 369.92C761.87 369.79 761.987 369.562 761.987 369.239V369.17C761.987 368.33 761.756 367.676 761.296 367.21C760.842 366.744 760.151 366.511 759.225 366.511C758.265 366.511 757.512 366.722 756.967 367.142C756.421 367.562 756.038 368.011 755.816 368.489L753.907 367.807C754.248 367.011 754.702 366.392 755.271 365.949C755.844 365.5 756.469 365.187 757.146 365.011C757.827 364.83 758.498 364.739 759.157 364.739C759.577 364.739 760.06 364.79 760.606 364.892C761.157 364.989 761.688 365.19 762.2 365.497C762.717 365.804 763.146 366.267 763.487 366.886C763.827 367.506 763.998 368.335 763.998 369.375V378H761.987V376.227H761.884C761.748 376.511 761.521 376.815 761.202 377.139C760.884 377.463 760.461 377.739 759.933 377.966C759.404 378.193 758.759 378.307 757.998 378.307ZM758.305 376.5C759.1 376.5 759.771 376.344 760.316 376.031C760.867 375.719 761.282 375.315 761.56 374.821C761.844 374.327 761.987 373.807 761.987 373.261V371.42C761.901 371.523 761.714 371.616 761.424 371.702C761.14 371.781 760.81 371.852 760.435 371.915C760.066 371.972 759.705 372.023 759.353 372.068C759.006 372.108 758.725 372.142 758.509 372.17C757.987 372.239 757.498 372.349 757.043 372.503C756.594 372.651 756.231 372.875 755.952 373.176C755.68 373.472 755.543 373.875 755.543 374.386C755.543 375.085 755.802 375.614 756.319 375.972C756.842 376.324 757.504 376.5 758.305 376.5ZM783.692 367.841L781.885 368.352C781.771 368.051 781.604 367.759 781.382 367.474C781.166 367.185 780.871 366.946 780.496 366.759C780.121 366.571 779.641 366.477 779.055 366.477C778.254 366.477 777.587 366.662 777.053 367.031C776.524 367.395 776.26 367.858 776.26 368.42C776.26 368.92 776.442 369.315 776.805 369.605C777.169 369.895 777.737 370.136 778.51 370.33L780.453 370.807C781.624 371.091 782.496 371.526 783.07 372.111C783.643 372.69 783.93 373.437 783.93 374.352C783.93 375.102 783.714 375.773 783.283 376.364C782.857 376.955 782.26 377.42 781.493 377.761C780.726 378.102 779.834 378.273 778.817 378.273C777.482 378.273 776.376 377.983 775.501 377.403C774.626 376.824 774.072 375.977 773.839 374.864L775.749 374.386C775.93 375.091 776.274 375.619 776.78 375.972C777.291 376.324 777.959 376.5 778.783 376.5C779.72 376.5 780.464 376.301 781.016 375.903C781.572 375.5 781.851 375.017 781.851 374.455C781.851 374 781.692 373.619 781.374 373.312C781.055 373 780.567 372.767 779.908 372.614L777.726 372.102C776.527 371.818 775.646 371.378 775.084 370.781C774.527 370.179 774.249 369.426 774.249 368.523C774.249 367.784 774.456 367.131 774.871 366.562C775.291 365.994 775.862 365.548 776.584 365.224C777.311 364.901 778.135 364.739 779.055 364.739C780.351 364.739 781.368 365.023 782.107 365.591C782.851 366.159 783.379 366.909 783.692 367.841ZM786.958 378V364.909H788.969V378H786.958ZM787.981 362.727C787.589 362.727 787.251 362.594 786.967 362.327C786.688 362.06 786.549 361.739 786.549 361.364C786.549 360.989 786.688 360.668 786.967 360.401C787.251 360.134 787.589 360 787.981 360C788.373 360 788.708 360.134 788.987 360.401C789.271 360.668 789.413 360.989 789.413 361.364C789.413 361.739 789.271 362.06 788.987 362.327C788.708 362.594 788.373 362.727 787.981 362.727ZM794.665 370.125V378H792.653V364.909H794.597V366.955H794.767C795.074 366.29 795.54 365.756 796.165 365.352C796.79 364.943 797.597 364.739 798.585 364.739C799.472 364.739 800.247 364.92 800.912 365.284C801.577 365.642 802.094 366.188 802.463 366.92C802.832 367.648 803.017 368.568 803.017 369.682V378H801.006V369.818C801.006 368.79 800.739 367.989 800.205 367.415C799.67 366.835 798.938 366.545 798.006 366.545C797.364 366.545 796.79 366.685 796.284 366.963C795.784 367.241 795.389 367.648 795.099 368.182C794.81 368.716 794.665 369.364 794.665 370.125ZM811.977 383.182C811.005 383.182 810.17 383.057 809.471 382.807C808.772 382.562 808.19 382.239 807.724 381.835C807.263 381.438 806.897 381.011 806.624 380.557L808.227 379.432C808.408 379.67 808.638 379.943 808.917 380.25C809.195 380.562 809.576 380.832 810.059 381.06C810.548 381.293 811.187 381.409 811.977 381.409C813.033 381.409 813.906 381.153 814.593 380.642C815.281 380.131 815.624 379.33 815.624 378.239V375.58H815.454C815.306 375.818 815.096 376.114 814.823 376.466C814.556 376.812 814.17 377.122 813.664 377.395C813.164 377.662 812.488 377.795 811.636 377.795C810.579 377.795 809.63 377.545 808.789 377.045C807.954 376.545 807.292 375.818 806.803 374.864C806.32 373.909 806.079 372.75 806.079 371.386C806.079 370.045 806.315 368.878 806.786 367.884C807.258 366.884 807.914 366.111 808.755 365.565C809.596 365.014 810.567 364.739 811.67 364.739C812.522 364.739 813.198 364.881 813.698 365.165C814.204 365.443 814.59 365.761 814.857 366.119C815.13 366.472 815.34 366.761 815.488 366.989H815.692V364.909H817.636V378.375C817.636 379.5 817.38 380.415 816.869 381.119C816.363 381.83 815.681 382.349 814.823 382.679C813.971 383.014 813.022 383.182 811.977 383.182ZM811.908 375.989C812.715 375.989 813.397 375.804 813.954 375.435C814.511 375.065 814.934 374.534 815.224 373.841C815.513 373.148 815.658 372.318 815.658 371.352C815.658 370.409 815.516 369.577 815.232 368.855C814.948 368.134 814.528 367.568 813.971 367.159C813.414 366.75 812.727 366.545 811.908 366.545C811.056 366.545 810.346 366.761 809.778 367.193C809.215 367.625 808.792 368.205 808.508 368.932C808.229 369.659 808.09 370.466 808.09 371.352C808.09 372.261 808.232 373.065 808.516 373.764C808.806 374.457 809.232 375.003 809.795 375.401C810.363 375.793 811.067 375.989 811.908 375.989ZM823.329 360.545V378H821.317V360.545H823.329ZM832.501 378.273C831.24 378.273 830.152 377.994 829.237 377.438C828.328 376.875 827.626 376.091 827.132 375.085C826.643 374.074 826.399 372.898 826.399 371.557C826.399 370.216 826.643 369.034 827.132 368.011C827.626 366.983 828.314 366.182 829.195 365.608C830.081 365.028 831.115 364.739 832.297 364.739C832.979 364.739 833.652 364.852 834.317 365.08C834.982 365.307 835.587 365.676 836.132 366.188C836.678 366.693 837.112 367.364 837.436 368.199C837.76 369.034 837.922 370.062 837.922 371.284V372.136H827.831V370.398H835.876C835.876 369.659 835.729 369 835.433 368.42C835.143 367.841 834.729 367.384 834.189 367.048C833.655 366.713 833.024 366.545 832.297 366.545C831.496 366.545 830.803 366.744 830.217 367.142C829.638 367.534 829.192 368.045 828.879 368.676C828.567 369.307 828.411 369.983 828.411 370.705V371.864C828.411 372.852 828.581 373.69 828.922 374.378C829.268 375.06 829.749 375.58 830.362 375.938C830.976 376.29 831.689 376.466 832.501 376.466C833.03 376.466 833.507 376.392 833.933 376.244C834.365 376.091 834.737 375.864 835.05 375.562C835.362 375.256 835.604 374.875 835.774 374.42L837.717 374.966C837.513 375.625 837.169 376.205 836.686 376.705C836.203 377.199 835.607 377.585 834.896 377.864C834.186 378.136 833.388 378.273 832.501 378.273ZM853.22 378.273C851.959 378.273 850.871 377.994 849.956 377.438C849.047 376.875 848.345 376.091 847.851 375.085C847.362 374.074 847.118 372.898 847.118 371.557C847.118 370.216 847.362 369.034 847.851 368.011C848.345 366.983 849.033 366.182 849.913 365.608C850.8 365.028 851.834 364.739 853.016 364.739C853.697 364.739 854.371 364.852 855.036 365.08C855.7 365.307 856.305 365.676 856.851 366.188C857.396 366.693 857.831 367.364 858.155 368.199C858.479 369.034 858.641 370.062 858.641 371.284V372.136H848.55V370.398H856.595C856.595 369.659 856.447 369 856.152 368.42C855.862 367.841 855.447 367.384 854.908 367.048C854.374 366.713 853.743 366.545 853.016 366.545C852.214 366.545 851.521 366.744 850.936 367.142C850.357 367.534 849.911 368.045 849.598 368.676C849.286 369.307 849.129 369.983 849.129 370.705V371.864C849.129 372.852 849.3 373.69 849.641 374.378C849.987 375.06 850.467 375.58 851.081 375.938C851.695 376.29 852.408 376.466 853.22 376.466C853.749 376.466 854.226 376.392 854.652 376.244C855.084 376.091 855.456 375.864 855.768 375.562C856.081 375.256 856.322 374.875 856.493 374.42L858.436 374.966C858.232 375.625 857.888 376.205 857.405 376.705C856.922 377.199 856.325 377.585 855.615 377.864C854.905 378.136 854.107 378.273 853.22 378.273ZM862.849 364.909L865.985 370.261L869.121 364.909H871.44L867.212 371.455L871.44 378H869.121L865.985 372.92L862.849 378H860.531L864.69 371.455L860.531 364.909H862.849ZM879.259 378.273C877.998 378.273 876.91 377.994 875.995 377.438C875.086 376.875 874.384 376.091 873.89 375.085C873.401 374.074 873.157 372.898 873.157 371.557C873.157 370.216 873.401 369.034 873.89 368.011C874.384 366.983 875.072 366.182 875.952 365.608C876.839 365.028 877.873 364.739 879.055 364.739C879.737 364.739 880.41 364.852 881.075 365.08C881.739 365.307 882.344 365.676 882.89 366.188C883.435 366.693 883.87 367.364 884.194 368.199C884.518 369.034 884.68 370.062 884.68 371.284V372.136H874.589V370.398H882.634C882.634 369.659 882.487 369 882.191 368.42C881.901 367.841 881.487 367.384 880.947 367.048C880.413 366.713 879.782 366.545 879.055 366.545C878.254 366.545 877.56 366.744 876.975 367.142C876.396 367.534 875.95 368.045 875.637 368.676C875.325 369.307 875.168 369.983 875.168 370.705V371.864C875.168 372.852 875.339 373.69 875.68 374.378C876.026 375.06 876.506 375.58 877.12 375.938C877.734 376.29 878.447 376.466 879.259 376.466C879.788 376.466 880.265 376.392 880.691 376.244C881.123 376.091 881.495 375.864 881.808 375.562C882.12 375.256 882.362 374.875 882.532 374.42L884.475 374.966C884.271 375.625 883.927 376.205 883.444 376.705C882.961 377.199 882.364 377.585 881.654 377.864C880.944 378.136 880.146 378.273 879.259 378.273ZM893.058 378.273C891.83 378.273 890.773 377.983 889.887 377.403C889.001 376.824 888.319 376.026 887.842 375.009C887.364 373.991 887.126 372.83 887.126 371.523C887.126 370.193 887.37 369.02 887.859 368.003C888.353 366.98 889.04 366.182 889.921 365.608C890.808 365.028 891.842 364.739 893.023 364.739C893.944 364.739 894.773 364.909 895.512 365.25C896.251 365.591 896.856 366.068 897.327 366.682C897.799 367.295 898.092 368.011 898.205 368.83H896.194C896.04 368.233 895.7 367.705 895.171 367.244C894.648 366.778 893.944 366.545 893.058 366.545C892.273 366.545 891.586 366.75 890.995 367.159C890.41 367.562 889.952 368.134 889.623 368.872C889.299 369.605 889.137 370.466 889.137 371.455C889.137 372.466 889.296 373.347 889.614 374.097C889.938 374.847 890.393 375.429 890.978 375.844C891.569 376.259 892.262 376.466 893.058 376.466C893.58 376.466 894.055 376.375 894.481 376.193C894.907 376.011 895.268 375.75 895.563 375.409C895.859 375.068 896.069 374.659 896.194 374.182H898.205C898.092 374.955 897.81 375.651 897.362 376.27C896.918 376.884 896.33 377.372 895.597 377.736C894.87 378.094 894.023 378.273 893.058 378.273ZM909.396 372.648V364.909H911.407V378H909.396V375.784H909.259C908.952 376.449 908.475 377.014 907.827 377.48C907.18 377.94 906.362 378.17 905.373 378.17C904.555 378.17 903.827 377.991 903.191 377.634C902.555 377.27 902.055 376.724 901.691 375.997C901.327 375.264 901.146 374.341 901.146 373.227V364.909H903.157V373.091C903.157 374.045 903.424 374.807 903.958 375.375C904.498 375.943 905.185 376.227 906.021 376.227C906.521 376.227 907.029 376.099 907.546 375.844C908.069 375.588 908.506 375.196 908.859 374.668C909.217 374.139 909.396 373.466 909.396 372.648ZM920.784 364.909V366.614H914V364.909H920.784ZM915.977 361.773H917.989V374.25C917.989 374.818 918.071 375.244 918.236 375.528C918.406 375.807 918.622 375.994 918.884 376.091C919.151 376.182 919.432 376.227 919.727 376.227C919.949 376.227 920.131 376.216 920.273 376.193C920.415 376.165 920.528 376.142 920.614 376.125L921.023 377.932C920.886 377.983 920.696 378.034 920.452 378.085C920.207 378.142 919.898 378.17 919.523 378.17C918.955 378.17 918.398 378.048 917.852 377.804C917.313 377.56 916.864 377.188 916.506 376.688C916.153 376.188 915.977 375.557 915.977 374.795V361.773ZM927.662 378.307C926.832 378.307 926.08 378.151 925.403 377.838C924.727 377.52 924.19 377.062 923.793 376.466C923.395 375.864 923.196 375.136 923.196 374.284C923.196 373.534 923.344 372.926 923.639 372.46C923.935 371.989 924.33 371.619 924.824 371.352C925.318 371.085 925.864 370.886 926.46 370.756C927.063 370.619 927.668 370.511 928.276 370.432C929.071 370.33 929.716 370.253 930.21 370.202C930.71 370.145 931.074 370.051 931.301 369.92C931.534 369.79 931.651 369.562 931.651 369.239V369.17C931.651 368.33 931.42 367.676 930.96 367.21C930.506 366.744 929.815 366.511 928.889 366.511C927.929 366.511 927.176 366.722 926.631 367.142C926.085 367.562 925.702 368.011 925.48 368.489L923.571 367.807C923.912 367.011 924.366 366.392 924.935 365.949C925.509 365.5 926.134 365.187 926.81 365.011C927.491 364.83 928.162 364.739 928.821 364.739C929.241 364.739 929.724 364.79 930.27 364.892C930.821 364.989 931.352 365.19 931.864 365.497C932.381 365.804 932.81 366.267 933.151 366.886C933.491 367.506 933.662 368.335 933.662 369.375V378H931.651V376.227H931.548C931.412 376.511 931.185 376.815 930.866 377.139C930.548 377.463 930.125 377.739 929.597 377.966C929.068 378.193 928.423 378.307 927.662 378.307ZM927.969 376.5C928.764 376.5 929.435 376.344 929.98 376.031C930.531 375.719 930.946 375.315 931.224 374.821C931.509 374.327 931.651 373.807 931.651 373.261V371.42C931.565 371.523 931.378 371.616 931.088 371.702C930.804 371.781 930.474 371.852 930.099 371.915C929.73 371.972 929.369 372.023 929.017 372.068C928.67 372.108 928.389 372.142 928.173 372.17C927.651 372.239 927.162 372.349 926.707 372.503C926.259 372.651 925.895 372.875 925.616 373.176C925.344 373.472 925.207 373.875 925.207 374.386C925.207 375.085 925.466 375.614 925.983 375.972C926.506 376.324 927.168 376.5 927.969 376.5ZM937.606 378V360.545H939.617V366.989H939.788C939.935 366.761 940.14 366.472 940.401 366.119C940.668 365.761 941.049 365.443 941.543 365.165C942.043 364.881 942.719 364.739 943.572 364.739C944.674 364.739 945.646 365.014 946.487 365.565C947.327 366.116 947.984 366.898 948.455 367.909C948.927 368.92 949.163 370.114 949.163 371.489C949.163 372.875 948.927 374.077 948.455 375.094C947.984 376.105 947.33 376.889 946.495 377.446C945.66 377.997 944.697 378.273 943.606 378.273C942.765 378.273 942.092 378.134 941.586 377.855C941.08 377.571 940.691 377.25 940.418 376.892C940.146 376.528 939.935 376.227 939.788 375.989H939.549V378H937.606ZM939.583 371.455C939.583 372.443 939.728 373.315 940.018 374.071C940.308 374.821 940.731 375.409 941.288 375.835C941.844 376.256 942.526 376.466 943.333 376.466C944.174 376.466 944.876 376.244 945.438 375.801C946.006 375.352 946.433 374.75 946.717 373.994C947.006 373.233 947.151 372.386 947.151 371.455C947.151 370.534 947.009 369.705 946.725 368.966C946.447 368.222 946.023 367.634 945.455 367.202C944.893 366.764 944.185 366.545 943.333 366.545C942.515 366.545 941.827 366.753 941.271 367.168C940.714 367.577 940.293 368.151 940.009 368.889C939.725 369.622 939.583 370.477 939.583 371.455ZM954.251 360.545V378H952.239V360.545H954.251ZM963.423 378.273C962.162 378.273 961.074 377.994 960.159 377.438C959.25 376.875 958.548 376.091 958.054 375.085C957.565 374.074 957.321 372.898 957.321 371.557C957.321 370.216 957.565 369.034 958.054 368.011C958.548 366.983 959.236 366.182 960.116 365.608C961.003 365.028 962.037 364.739 963.219 364.739C963.901 364.739 964.574 364.852 965.239 365.08C965.903 365.307 966.509 365.676 967.054 366.188C967.599 366.693 968.034 367.364 968.358 368.199C968.682 369.034 968.844 370.062 968.844 371.284V372.136H958.753V370.398H966.798C966.798 369.659 966.651 369 966.355 368.42C966.065 367.841 965.651 367.384 965.111 367.048C964.577 366.713 963.946 366.545 963.219 366.545C962.418 366.545 961.724 366.744 961.139 367.142C960.56 367.534 960.114 368.045 959.801 368.676C959.489 369.307 959.332 369.983 959.332 370.705V371.864C959.332 372.852 959.503 373.69 959.844 374.378C960.19 375.06 960.67 375.58 961.284 375.938C961.898 376.29 962.611 376.466 963.423 376.466C963.952 376.466 964.429 376.392 964.855 376.244C965.287 376.091 965.659 375.864 965.972 375.562C966.284 375.256 966.526 374.875 966.696 374.42L968.639 374.966C968.435 375.625 968.091 376.205 967.608 376.705C967.125 377.199 966.528 377.585 965.818 377.864C965.108 378.136 964.31 378.273 963.423 378.273Z" fill="#00D0DD"/>
<defs>
<linearGradient id="paint0_linear_3_2" x1="112" y1="256" x2="201.059" y2="383.959" gradientUnits="userSpaceOnUse">
<stop stop-color="#82A8B9"/>
<stop offset="0.182292" stop-color="#BFD5DE"/>
<stop offset="0.566166" stop-color="#5CB9E1" stop-opacity="0.359375"/>
<stop offset="0.765625" stop-color="#59CDFF" stop-opacity="0.15"/>
<stop offset="0.875" stop-color="#3391B9" stop-opacity="0.15"/>
</linearGradient>
</defs>
</svg>
